<svg width="42" height="42" viewBox="0 0 42 42" fill="none" xmlns="http://www.w3.org/2000/svg">
<path fill-rule="evenodd" clip-rule="evenodd" d="M0 0H41.8789V33.6974H24.558V19.7371H20.7613V33.6974H18.7444V24.1661H16.8465V33.6974H0V0ZM1.42331 11.7461C3.63751 10.9441 5.85197 10.1417 8.06713 9.33909C16.9597 -0.719687 28.512 3.08853 32.6251 7.89494C23.0546 2.92077 15.9757 5.45625 12.4568 8.85778C39.3488 6.59438 46.0716 19.8808 31.5573 24.7436C44.4092 16.3673 28.0768 9.53157 11.0333 10.2055C6.93909 16.3348 8.28304 20.86 12.1008 24.9361C7.98434 22.3788 5.2543 18.6413 7.47396 10.6869C5.45694 11.0402 3.43992 11.3932 1.42331 11.7461V11.7461Z" fill="#9E9E9E"/>
<path fill-rule="evenodd" clip-rule="evenodd" d="M6.5752 37.3133H8.16408L8.19596 37.8157C8.65598 37.2494 9.2958 37.0496 10.1151 37.215C10.0521 37.6864 9.98858 38.1584 9.92509 38.6303C9.11231 38.3611 8.6033 38.6971 8.29557 39.3922L8.30173 39.4852L8.30214 41.896H6.5752V37.3133V37.3133ZM0.552734 35.7712V41.853C1.49112 41.856 2.43005 41.8595 3.36898 41.863C6.31878 41.9254 6.31454 39.3919 4.6348 38.713C6.20589 38.043 5.83193 35.7763 3.39197 35.7751C2.4451 35.7854 1.49864 35.7613 0.552734 35.7712V35.7712ZM2.38722 36.9947H3.13747C4.02878 37.0633 3.9865 38.1202 3.13747 38.1667H2.38722V36.9947ZM2.38722 39.385H3.19767C4.16055 39.4598 4.11498 40.6093 3.19767 40.66H2.38722V39.385ZM19.4012 35.6062H21.1284V41.8728H19.522V41.2718C17.7298 42.7689 15.8505 41.5709 15.7905 39.4895C15.8864 37.578 17.4843 36.5146 19.4012 37.7231V35.6062V35.6062ZM18.4769 38.4519C18.967 38.4519 19.3664 38.9619 19.3664 39.5877C19.3664 40.2133 18.967 40.7232 18.4769 40.7232C17.9867 40.7232 17.5873 40.2132 17.5873 39.5877C17.5873 38.9618 17.9867 38.4519 18.4769 38.4519V38.4519ZM10.8256 37.5558C10.8335 37.9218 10.8421 38.288 10.851 38.6547C11.9889 38.1371 13.3671 38.052 13.3709 38.9699C11.5162 38.8475 10.2781 39.2352 10.297 40.5856C10.313 41.7459 12.0041 42.4073 13.4463 41.4222C13.4542 41.5714 13.4627 41.7207 13.4712 41.8702C13.9933 41.8732 14.516 41.8766 15.0386 41.88C15.0885 40.4656 15.0903 39.3397 14.9479 38.5472C14.4654 37.2257 13.1986 36.8263 10.8256 37.5558V37.5558ZM13.3708 39.8755C13.3407 40.3543 13.1878 40.6665 12.8778 40.7816C12.3118 40.9909 11.6467 40.5807 12.0785 40.1351C12.2691 39.938 12.7023 39.8187 13.3708 39.8755V39.8755Z" fill="#9E9E9E"/>
<path fill-rule="evenodd" clip-rule="evenodd" d="M23.5987 40.0924C24.6693 40.1016 25.7404 40.1107 26.8119 40.1203C27.1056 38.4519 26 37.2045 24.4798 37.1762C21.299 36.9756 20.7952 41.826 24.4624 41.9989C25.1299 41.997 25.7973 41.9197 26.4663 41.7326C26.4488 41.3072 26.4314 40.8819 26.4144 40.4569C24.5683 41.3689 23.7205 40.6596 23.5987 40.0924V40.0924ZM23.5644 39.069L25.2744 39.0969C25.2333 37.9488 23.641 38.0567 23.5644 39.069ZM30.9236 38.6905C30.9866 38.2701 31.0501 37.8493 31.1138 37.4286C28.8403 36.7886 27.3977 37.573 27.3474 38.6063C27.33 40.2749 29.8701 39.8256 29.6278 40.6389C29.1537 41.0781 28.3592 40.7929 27.5549 40.4426C27.5036 40.8722 27.4518 41.3022 27.3996 41.7325C29.56 42.2143 31.0564 42.0253 31.3725 40.6389C31.5786 38.7808 29.0361 39.2089 29.0576 38.522C29.0754 38.1721 30.1122 38.1157 30.9236 38.6905V38.6905ZM35.8298 38.7042C35.864 38.2839 35.8983 37.8634 35.9332 37.4426C34.0362 36.7745 31.8023 37.5078 31.8046 39.6298C31.8756 41.6376 33.9388 42.4305 36.0023 41.7745C35.9788 41.3305 35.9558 40.8864 35.9332 40.4427C34.7303 41.2172 33.6424 40.5818 33.6009 39.5874C33.5671 38.7603 34.2751 37.961 35.8298 38.7042V38.7042ZM39.3538 37.2045C37.6585 37.2502 36.5935 37.9008 36.5555 39.6298C36.5654 40.7842 37.2672 42.0115 39.3365 41.9849C40.5857 42.0593 42.0773 41.3072 41.9969 39.6015C41.9316 38.4271 41.362 37.26 39.3538 37.2045ZM39.2763 38.3539C39.7853 38.3539 40.2001 38.8987 40.2001 39.5668C40.2001 40.2345 39.7853 40.7793 39.2763 40.7793C38.7663 40.7793 38.3514 40.2346 38.3514 39.5668C38.3514 38.8987 38.7663 38.3539 39.2763 38.3539Z" fill="#9E9E9E"/>
</svg>
