<svg width="42" height="42" viewBox="0 0 42 42" fill="none" xmlns="http://www.w3.org/2000/svg">
<g clip-path="url(#clip0_2103_191)">
<path d="M0 0H42V42H0V0Z" fill="#9E9E9E"/>
<path d="M31.0034 24.3238C31.0034 24.9891 30.2096 25.8068 29.5641 25.8068H28.9763C28.9769 21.7355 28.9769 17.1713 28.9763 16.3611C28.9761 16.3371 28.9805 16.3133 28.9895 16.291C28.9985 16.2688 29.0117 16.2485 29.0285 16.2314C29.0453 16.2143 29.0654 16.2007 29.0875 16.1913C29.1095 16.1819 29.1333 16.177 29.1572 16.1768H30.8216C30.9216 16.1768 31.0035 16.2607 31.0035 16.3625V24.3238H31.0034ZM28.2912 27.2355C28.2912 27.6566 28.0852 28.362 26.7049 28.362C24.0301 28.362 22.3881 26.2664 22.3881 24.7635C22.3881 24.7635 22.3851 19.9038 22.3851 16.3626C22.3849 16.3386 22.3893 16.3148 22.3983 16.2925C22.4073 16.2702 22.4206 16.2499 22.4374 16.2328C22.4543 16.2156 22.4744 16.202 22.4965 16.1927C22.5186 16.1833 22.5424 16.1785 22.5664 16.1783H24.2328C24.3328 16.1783 24.415 16.2617 24.415 16.3642V24.1725C24.415 25.4627 25.4361 26.5091 26.6948 26.5091H28.2921L28.2912 27.2355ZM30.9479 15.4765H29.0307C28.623 15.4765 28.291 15.817 28.291 16.2347V25.8076H26.6936C25.8123 25.8076 25.098 25.0754 25.098 24.1723V16.2347C25.098 15.816 24.7665 15.4762 24.358 15.4762H22.4399C22.0315 15.4762 21.7 15.816 21.6994 16.2347C21.6984 19.6958 21.7024 24.7636 21.7024 24.7636C21.7026 27.4274 24.6158 29.0631 26.7044 29.0631C28.1053 29.0631 28.9754 28.3613 28.9754 27.2307V26.5089H29.5638C30.5959 26.5089 31.6876 25.386 31.6876 24.3238V16.2347C31.6886 15.816 31.3571 15.4762 30.948 15.4762V15.4765H30.9479ZM19.6165 25.6375C19.6168 25.6614 19.6123 25.6852 19.6033 25.7075C19.5943 25.7297 19.581 25.75 19.5641 25.7671C19.5473 25.7842 19.5272 25.7978 19.5051 25.8071C19.483 25.8164 19.4593 25.8213 19.4353 25.8214H17.7689C17.6675 25.8214 17.5863 25.7373 17.5867 25.636V17.8276C17.5867 16.5375 16.5654 15.4911 15.3069 15.4911H13.7096V14.7645C13.7096 14.3443 13.9156 13.638 15.2958 13.638C17.9707 13.638 19.6132 15.7335 19.6132 17.2365C19.6132 17.2365 19.6162 22.1198 19.6162 25.6374H19.6165V25.6375ZM11.1783 25.823C11.0769 25.82 10.9958 25.7383 10.997 25.6369V17.6771C10.997 17.0117 11.7908 16.1929 12.4361 16.1929H13.0244C13.0235 22.0231 13.0235 25.0064 13.0244 25.6366C13.0249 25.6852 13.0061 25.7321 12.972 25.7669C12.938 25.8018 12.8916 25.8217 12.8429 25.8224H11.1786L11.1783 25.823ZM20.2971 17.2366C20.2975 14.5726 17.3842 12.9369 15.2959 12.9369C13.8946 12.9369 13.0244 13.6386 13.0244 14.7693V15.4911H12.4364C11.4039 15.4911 10.3123 16.614 10.3123 17.6762V25.7653C10.3123 26.184 10.6437 26.5238 11.052 26.5238H12.9689C12.9808 26.5238 12.991 26.5206 13.003 26.5206C13.3947 26.5017 13.7086 26.1718 13.7086 25.7653V16.1923H15.3062C16.1872 16.1923 16.9018 16.9246 16.9018 17.8277V25.7654C16.9018 26.1841 17.2333 26.5239 17.6415 26.5239H19.56C19.9685 26.5239 20.2997 26.185 20.2997 25.7654C20.3012 22.2397 20.2974 17.2364 20.2974 17.2364L20.2971 17.2366Z" fill="#EEEEEE"/>
</g>
<defs>
<clipPath id="clip0_2103_191">
<rect width="42" height="42" fill="white"/>
</clipPath>
</defs>
</svg>
